<svg width="28" height="30" viewBox="0 0 28 30" fill="none" xmlns="http://www.w3.org/2000/svg">
<g filter="url(#filter0_d_21_345)">
<path opacity="0.4" d="M18.7702 18.98H9.23024C8.81024 18.98 8.43024 18.71 8.29024 18.32L4.13024 6.67001C3.80024 5.74001 4.86024 4.95001 5.65024 5.52001L9.65024 8.38001C10.1802 8.76001 10.9402 8.53001 11.1702 7.92001L13.0602 2.88001C13.3802 2.01001 14.6102 2.01001 14.9302 2.88001L16.8202 7.92001C17.0502 8.54001 17.8002 8.76001 18.3402 8.38001L22.3402 5.52001C23.1402 4.95001 24.1902 5.75001 23.8602 6.67001L19.7002 18.32C19.5702 18.71 19.1902 18.98 18.7702 18.98Z" fill="#292D32"/>
<path d="M19 22H9C8.59 22 8.25 21.66 8.25 21.25C8.25 20.84 8.59 20.5 9 20.5H19C19.41 20.5 19.75 20.84 19.75 21.25C19.75 21.66 19.41 22 19 22Z" fill="#292D32"/>
<path d="M16.5 14.75H11.5C11.09 14.75 10.75 14.41 10.75 14C10.75 13.59 11.09 13.25 11.5 13.25H16.5C16.91 13.25 17.25 13.59 17.25 14C17.25 14.41 16.91 14.75 16.5 14.75Z" fill="#292D32"/>
</g>
<defs>
<filter id="filter0_d_21_345" x="-2" y="0" width="32" height="32" filterUnits="userSpaceOnUse" color-interpolation-filters="sRGB">
<feFlood flood-opacity="0" result="BackgroundImageFix"/>
<feColorMatrix in="SourceAlpha" type="matrix" values="0 0 0 0 0 0 0 0 0 0 0 0 0 0 0 0 0 0 127 0" result="hardAlpha"/>
<feOffset dy="4"/>
<feGaussianBlur stdDeviation="2"/>
<feComposite in2="hardAlpha" operator="out"/>
<feColorMatrix type="matrix" values="0 0 0 0 0 0 0 0 0 0 0 0 0 0 0 0 0 0 0.25 0"/>
<feBlend mode="normal" in2="BackgroundImageFix" result="effect1_dropShadow_21_345"/>
<feBlend mode="normal" in="SourceGraphic" in2="effect1_dropShadow_21_345" result="shape"/>
</filter>
</defs>
</svg>
