<svg width="28" height="30" viewBox="0 0 28 30" fill="none" xmlns="http://www.w3.org/2000/svg">
<g filter="url(#filter0_d_21_352)">
<path opacity="0.4" d="M20 20.5H19V20.25C19 19.15 18.1 18.25 17 18.25H14.75V15.96C14.5 15.99 14.25 16 14 16C13.75 16 13.5 15.99 13.25 15.96V18.25H11C9.9 18.25 9 19.15 9 20.25V20.5H8C7.59 20.5 7.25 20.84 7.25 21.25C7.25 21.66 7.59 22 8 22H20C20.41 22 20.75 21.66 20.75 21.25C20.75 20.84 20.41 20.5 20 20.5Z" fill="#292D32"/>
<path opacity="0.4" d="M7.51979 11.64C6.85979 11.39 6.27979 10.98 5.81979 10.52C4.88979 9.49 4.27979 8.26 4.27979 6.82C4.27979 5.38 5.40979 4.25 6.84979 4.25H7.40979C7.14979 4.78 6.99979 5.37 6.99979 6V9C6.99979 9.94 7.17979 10.83 7.51979 11.64Z" fill="#292D32"/>
<path opacity="0.4" d="M23.72 6.82C23.72 8.26 23.11 9.49 22.18 10.52C21.72 10.98 21.14 11.39 20.48 11.64C20.82 10.83 21 9.94 21 9V6C21 5.37 20.85 4.78 20.59 4.25H21.15C22.59 4.25 23.72 5.38 23.72 6.82Z" fill="#292D32"/>
<path d="M17 2H11C8.79 2 7 3.79 7 6V9C7 12.87 10.13 16 14 16C17.87 16 21 12.87 21 9V6C21 3.79 19.21 2 17 2ZM16.84 8.45L16.22 9.21C16.12 9.32 16.05 9.54 16.06 9.69L16.12 10.67C16.16 11.27 15.73 11.58 15.17 11.36L14.26 11C14.12 10.95 13.88 10.95 13.74 11L12.83 11.36C12.27 11.58 11.84 11.27 11.88 10.67L11.94 9.69C11.95 9.54 11.88 9.32 11.78 9.21L11.16 8.45C10.77 7.99 10.94 7.48 11.52 7.33L12.47 7.09C12.62 7.05 12.8 6.91 12.88 6.78L13.41 5.96C13.74 5.45 14.26 5.45 14.59 5.96L15.12 6.78C15.2 6.91 15.38 7.05 15.53 7.09L16.48 7.33C17.06 7.48 17.23 7.99 16.84 8.45Z" fill="#292D32"/>
<path opacity="0.4" d="M16.8402 8.45L16.2202 9.21C16.1202 9.32 16.0502 9.54 16.0602 9.69L16.1202 10.67C16.1602 11.27 15.7302 11.58 15.1702 11.36L14.2602 11C14.1202 10.95 13.8802 10.95 13.7402 11L12.8302 11.36C12.2702 11.58 11.8402 11.27 11.8802 10.67L11.9402 9.69C11.9502 9.54 11.8802 9.32 11.7802 9.21L11.1602 8.45C10.7702 7.99 10.9402 7.48 11.5202 7.33L12.4702 7.09C12.6202 7.05 12.8002 6.91 12.8802 6.78L13.4102 5.96C13.7402 5.45 14.2602 5.45 14.5902 5.96L15.1202 6.78C15.2002 6.91 15.3802 7.05 15.5302 7.09L16.4802 7.33C17.0602 7.48 17.2302 7.99 16.8402 8.45Z" fill="#292D32"/>
</g>
<defs>
<filter id="filter0_d_21_352" x="-2" y="0" width="32" height="32" filterUnits="userSpaceOnUse" color-interpolation-filters="sRGB">
<feFlood flood-opacity="0" result="BackgroundImageFix"/>
<feColorMatrix in="SourceAlpha" type="matrix" values="0 0 0 0 0 0 0 0 0 0 0 0 0 0 0 0 0 0 127 0" result="hardAlpha"/>
<feOffset dy="4"/>
<feGaussianBlur stdDeviation="2"/>
<feComposite in2="hardAlpha" operator="out"/>
<feColorMatrix type="matrix" values="0 0 0 0 0 0 0 0 0 0 0 0 0 0 0 0 0 0 0.25 0"/>
<feBlend mode="normal" in2="BackgroundImageFix" result="effect1_dropShadow_21_352"/>
<feBlend mode="normal" in="SourceGraphic" in2="effect1_dropShadow_21_352" result="shape"/>
</filter>
</defs>
</svg>
