<svg width="26" height="29" viewBox="0 0 26 29" fill="none" xmlns="http://www.w3.org/2000/svg">
<g filter="url(#filter0_d_134_130)">
<path opacity="0.4" d="M21.5 6.7C20.45 2.08 16.42 0 12.88 0C12.88 0 12.88 0 12.87 0C9.33998 0 5.29998 2.07 4.24998 6.69C3.07998 11.85 6.23998 16.22 9.09998 18.97C10.16 19.99 11.52 20.5 12.88 20.5C14.24 20.5 15.6 19.99 16.65 18.97C19.51 16.22 22.67 11.86 21.5 6.7Z" fill="#292D32"/>
<path d="M12.8805 11.7102C14.6202 11.7102 16.0305 10.2999 16.0305 8.56016C16.0305 6.82046 14.6202 5.41016 12.8805 5.41016C11.1408 5.41016 9.73047 6.82046 9.73047 8.56016C9.73047 10.2999 11.1408 11.7102 12.8805 11.7102Z" fill="#292D32"/>
</g>
<defs>
<filter id="filter0_d_134_130" x="0" y="0" width="25.75" height="28.5" filterUnits="userSpaceOnUse" color-interpolation-filters="sRGB">
<feFlood flood-opacity="0" result="BackgroundImageFix"/>
<feColorMatrix in="SourceAlpha" type="matrix" values="0 0 0 0 0 0 0 0 0 0 0 0 0 0 0 0 0 0 127 0" result="hardAlpha"/>
<feOffset dy="4"/>
<feGaussianBlur stdDeviation="2"/>
<feComposite in2="hardAlpha" operator="out"/>
<feColorMatrix type="matrix" values="0 0 0 0 0 0 0 0 0 0 0 0 0 0 0 0 0 0 0.25 0"/>
<feBlend mode="normal" in2="BackgroundImageFix" result="effect1_dropShadow_134_130"/>
<feBlend mode="normal" in="SourceGraphic" in2="effect1_dropShadow_134_130" result="shape"/>
</filter>
</defs>
</svg>
