<svg width="28" height="28" viewBox="0 0 28 28" fill="none" xmlns="http://www.w3.org/2000/svg">
<g filter="url(#filter0_d_134_131)">
<path opacity="0.4" d="M14 20C19.5228 20 24 15.5228 24 10C24 4.47715 19.5228 0 14 0C8.47715 0 4 4.47715 4 10C4 15.5228 8.47715 20 14 20Z" fill="#292D32"/>
<path d="M16.2602 10.1001L14.7502 9.5701V6.1801H15.1102C15.9202 6.1801 16.5802 6.8901 16.5802 7.7601C16.5802 8.1701 16.9202 8.5101 17.3302 8.5101C17.7402 8.5101 18.0802 8.1701 18.0802 7.7601C18.0802 6.0601 16.7502 4.6801 15.1102 4.6801H14.7502V4.1001C14.7502 3.6901 14.4102 3.3501 14.0002 3.3501C13.5902 3.3501 13.2502 3.6901 13.2502 4.1001V4.6801H12.6002C11.1202 4.6801 9.91016 5.9301 9.91016 7.4601C9.91016 9.2501 10.9502 9.8201 11.7402 10.1001L13.2502 10.6301V14.0101H12.8902C12.0802 14.0101 11.4202 13.3001 11.4202 12.4301C11.4202 12.0201 11.0802 11.6801 10.6702 11.6801C10.2602 11.6801 9.92016 12.0201 9.92016 12.4301C9.92016 14.1301 11.2502 15.5101 12.8902 15.5101H13.2502V16.1001C13.2502 16.5101 13.5902 16.8501 14.0002 16.8501C14.4102 16.8501 14.7502 16.5101 14.7502 16.1001V15.5201H15.4002C16.8802 15.5201 18.0902 14.2701 18.0902 12.7401C18.0802 10.9401 17.0402 10.3701 16.2602 10.1001ZM12.2402 8.6901C11.7302 8.5101 11.4202 8.3401 11.4202 7.4701C11.4202 6.7601 11.9502 6.1901 12.6102 6.1901H13.2602V9.0501L12.2402 8.6901ZM15.4002 14.0201H14.7502V11.1601L15.7602 11.5101C16.2702 11.6901 16.5802 11.8601 16.5802 12.7301C16.5802 13.4401 16.0502 14.0201 15.4002 14.0201Z" fill="#292D32"/>
</g>
<defs>
<filter id="filter0_d_134_131" x="0" y="0" width="28" height="28" filterUnits="userSpaceOnUse" color-interpolation-filters="sRGB">
<feFlood flood-opacity="0" result="BackgroundImageFix"/>
<feColorMatrix in="SourceAlpha" type="matrix" values="0 0 0 0 0 0 0 0 0 0 0 0 0 0 0 0 0 0 127 0" result="hardAlpha"/>
<feOffset dy="4"/>
<feGaussianBlur stdDeviation="2"/>
<feComposite in2="hardAlpha" operator="out"/>
<feColorMatrix type="matrix" values="0 0 0 0 0 0 0 0 0 0 0 0 0 0 0 0 0 0 0.25 0"/>
<feBlend mode="normal" in2="BackgroundImageFix" result="effect1_dropShadow_134_131"/>
<feBlend mode="normal" in="SourceGraphic" in2="effect1_dropShadow_134_131" result="shape"/>
</filter>
</defs>
</svg>
