<svg width="28" height="28" viewBox="0 0 28 28" fill="none" xmlns="http://www.w3.org/2000/svg">
<g filter="url(#filter0_d_134_129)">
<path opacity="0.4" d="M14 20C19.5228 20 24 15.5228 24 10C24 4.47715 19.5228 0 14 0C8.47715 0 4 4.47715 4 10C4 15.5228 8.47715 20 14 20Z" fill="#292D32"/>
<path d="M17.7106 13.93C17.5806 13.93 17.4506 13.9 17.3306 13.82L14.2306 11.97C13.4606 11.51 12.8906 10.5 12.8906 9.61001V5.51001C12.8906 5.10001 13.2306 4.76001 13.6406 4.76001C14.0506 4.76001 14.3906 5.10001 14.3906 5.51001V9.61001C14.3906 9.97001 14.6906 10.5 15.0006 10.68L18.1006 12.53C18.4606 12.74 18.5706 13.2 18.3606 13.56C18.2106 13.8 17.9606 13.93 17.7106 13.93Z" fill="#292D32"/>
</g>
<defs>
<filter id="filter0_d_134_129" x="0" y="0" width="28" height="28" filterUnits="userSpaceOnUse" color-interpolation-filters="sRGB">
<feFlood flood-opacity="0" result="BackgroundImageFix"/>
<feColorMatrix in="SourceAlpha" type="matrix" values="0 0 0 0 0 0 0 0 0 0 0 0 0 0 0 0 0 0 127 0" result="hardAlpha"/>
<feOffset dy="4"/>
<feGaussianBlur stdDeviation="2"/>
<feComposite in2="hardAlpha" operator="out"/>
<feColorMatrix type="matrix" values="0 0 0 0 0 0 0 0 0 0 0 0 0 0 0 0 0 0 0.25 0"/>
<feBlend mode="normal" in2="BackgroundImageFix" result="effect1_dropShadow_134_129"/>
<feBlend mode="normal" in="SourceGraphic" in2="effect1_dropShadow_134_129" result="shape"/>
</filter>
</defs>
</svg>
